# xmcd CD database file
#
# Track frame offsets:
#	150
#	21187
#	47442
#	71950
#	94400
#	103782
#	116715
#	139582
#
# Disc length: 2066 seconds
#
# Revision: 0
# Processed by: cddbd v1.5.1PL0 Copyright (c) Steve Scherf et al.
# Submitted via: CDex 1.60beta1
#
DISCID=70081008
DTITLE=Galie - Galie [CD2]
DYEAR=1900
DGENRE=New Age
TTITLE0=g
TTITLE1=h
TTITLE2=i
TTITLE3=j
TTITLE4=k
TTITLE5=l
TTITLE6=m
TTITLE7=n
EXTD=
EXTT0=
EXTT1=
EXTT2=
EXTT3=
EXTT4=
EXTT5=
EXTT6=
EXTT7=
PLAYORDER=
